<mxfile host="www.draw.io" modified="2020-01-03T14:53:03.152Z" agent="Mozilla/5.0 (iPad; CPU OS 12_2 like Mac OS X) AppleWebKit/605.1.15 (KHTML, like Gecko) CriOS/79.0.3945.73 Mobile/15E148 Safari/605.1" etag="Cd2Okciorw13yxsKe4Uh" version="12.4.8" type="github">
  <diagram id="MwV5VvQdyuD4-RBJx0bw" name="第 1 页">
    <mxGraphModel dx="526" dy="484" grid="1" gridSize="10" guides="1" tooltips="1" connect="1" arrows="1" fold="1" page="1" pageScale="1" pageWidth="827" pageHeight="1169" math="0" shadow="0">
      <root>
        <mxCell id="0"/>
        <mxCell id="1" parent="0"/>
        <mxCell id="fdjM0Ob6txCHjzFaXtzZ-1" value="能力" style="rounded=1;whiteSpace=wrap;html=1;" vertex="1" parent="1">
          <mxGeometry x="60" y="170" width="120" height="60" as="geometry"/>
        </mxCell>
      </root>
    </mxGraphModel>
  </diagram>
</mxfile>
